<?xml version="1.0" standalone="no"?>
<!DOCTYPE svg PUBLIC "-//W3C//DTD SVG 20010904//EN"
 "http://www.w3.org/TR/2001/REC-SVG-20010904/DTD/svg10.dtd">
<svg version="1.0" xmlns="http://www.w3.org/2000/svg"
 width="552.000000pt" height="297.000000pt" viewBox="0 0 552.000000 297.000000"
 preserveAspectRatio="xMidYMid meet">

<g transform="translate(0.000000,297.000000) scale(0.100000,-0.100000)"
fill="#000000" stroke="none">
<path d="M2142 2253 c1 -61 1 -61 32 -66 17 -2 32 -4 33 -3 1 1 -9 23 -22 49
l-24 47 27 -6 c21 -4 24 -3 12 5 -8 6 -22 11 -32 11 -9 0 -19 6 -21 13 -3 6
-5 -16 -5 -50z"/>
<path d="M2259 2213 c29 -55 37 -62 77 -73 25 -7 46 -11 48 -9 2 2 -7 28 -21
57 -24 53 -41 66 -107 79 l-29 6 32 -60z"/>
<path d="M2410 2216 c0 -4 14 -31 31 -60 25 -46 37 -57 75 -70 49 -17 54 -10
29 38 -20 38 -19 52 3 35 15 -13 16 -12 3 3 -7 10 -17 15 -22 12 -5 -3 -9 -1
-9 4 0 5 -18 14 -41 21 -23 7 -47 15 -55 18 -8 3 -14 2 -14 -1z"/>
<path d="M1616 2182 c-2 -4 8 -14 24 -21 16 -7 43 -31 60 -54 16 -22 30 -36
30 -29 0 6 -19 32 -43 57 -24 25 -41 47 -39 50 3 3 -2 5 -11 5 -9 0 -18 -4
-21 -8z"/>
<path d="M2621 2101 c27 -50 39 -61 72 -71 21 -6 41 -10 43 -7 2 2 -7 29 -20
59 -21 47 -29 56 -64 66 -63 19 -66 16 -31 -47z"/>
<path d="M2770 2106 c0 -3 12 -30 27 -61 23 -46 33 -57 63 -65 59 -17 62 -14
39 31 -17 34 -18 43 -7 51 10 8 9 9 -4 5 -9 -3 -19 0 -21 7 -3 7 -18 16 -34
19 -15 3 -36 9 -45 12 -10 4 -18 5 -18 1z"/>
<path d="M3445 2069 c-4 -6 -5 -12 -2 -15 2 -3 7 2 10 11 7 17 1 20 -8 4z"/>
<path d="M2950 2049 c0 -5 11 -32 25 -60 25 -48 39 -58 98 -73 26 -6 27 -5 17
14 -6 11 -8 31 -5 43 5 16 4 18 -3 8 -8 -11 -13 -7 -23 15 -10 20 -28 33 -61
45 -27 9 -48 13 -48 8z"/>
<path d="M1761 1983 c11 -21 29 -69 41 -108 12 -38 29 -95 39 -125 9 -30 13
-59 9 -64 -5 -5 -6 -14 -4 -21 4 -9 -3 -11 -23 -8 l-28 4 32 -16 c28 -15 31
-20 26 -50 -3 -20 -1 -35 7 -40 10 -6 12 -2 8 13 -4 12 -2 24 3 27 4 3 5 13 2
22 -5 12 -3 14 8 8 10 -7 9 -1 -3 18 -23 35 -23 44 1 23 28 -25 48 -10 24 17
-13 16 -14 18 -2 9 14 -11 20 -5 43 43 15 30 26 56 24 58 -2 2 3 11 10 19 10
13 9 17 -10 22 -46 12 -50 8 -46 -35 3 -33 2 -37 -9 -24 -6 10 -17 14 -24 10
-8 -6 -7 -10 5 -17 9 -5 16 -14 16 -20 0 -6 -7 -5 -17 3 -15 13 -16 11 -9 -13
3 -16 4 -28 2 -28 -7 0 -45 84 -51 115 -9 41 -76 195 -85 195 -4 0 1 -17 11
-37z m156 -275 c-3 -8 -6 -5 -6 6 -1 11 2 17 5 13 3 -3 4 -12 1 -19z"/>
<path d="M3152 1940 c27 -49 39 -62 68 -70 59 -17 61 -14 35 43 -20 44 -31 55
-67 69 -69 27 -72 24 -36 -42z"/>
<path d="M3422 1960 c0 -19 2 -27 5 -17 2 9 2 25 0 35 -3 9 -5 1 -5 -18z"/>
<path d="M2570 1939 c-82 -10 -237 -45 -309 -70 -35 -12 -57 -16 -59 -9 -2 5
-8 10 -13 10 -5 0 -9 -51 -9 -114 0 -120 -2 -126 -49 -126 -24 0 -55 -35 -45
-52 16 -27 87 -83 113 -89 14 -4 45 -7 69 -8 35 -1 42 2 42 18 0 33 -17 66
-49 99 -29 29 -31 34 -30 104 1 40 3 65 6 56 3 -11 13 -18 26 -17 17 1 18 2 5
6 -23 6 -23 32 -1 48 15 11 20 10 35 -8 10 -11 18 -25 18 -31 0 -6 4 -5 9 3 5
8 16 11 24 8 8 -3 14 0 14 6 -1 34 5 47 19 47 12 0 15 -6 10 -25 -5 -19 -3
-23 9 -18 9 3 14 12 11 19 -3 8 3 18 14 24 26 14 40 13 40 -4 0 -8 4 -18 10
-21 6 -3 7 1 4 9 -3 9 -2 16 4 16 6 0 12 -6 15 -12 2 -7 7 -10 11 -7 11 10 -5
38 -26 45 -11 3 -18 8 -15 10 2 2 20 -3 40 -11 22 -9 37 -11 37 -5 0 5 7 10
15 10 18 0 20 -17 3 -23 -7 -2 -9 -8 -5 -13 5 -5 21 -1 38 8 32 19 72 11 82
-14 3 -9 9 -8 21 7 8 11 16 15 16 9 0 -7 10 -14 21 -17 14 -4 20 -11 16 -21
-3 -8 -2 -18 3 -21 6 -4 10 8 10 27 0 24 3 29 9 19 8 -13 12 -13 26 -1 15 12
19 12 30 -3 7 -9 19 -17 28 -17 8 0 17 -7 21 -15 3 -8 17 -15 31 -15 15 0 24
4 20 10 -3 6 0 10 9 10 8 0 22 3 32 7 11 4 15 3 10 -5 -3 -6 -1 -14 5 -18 9
-5 10 2 6 24 -5 24 -3 32 8 32 13 0 20 -18 16 -42 0 -5 4 -8 10 -8 7 0 9 9 6
22 -6 20 -5 20 11 4 13 -13 14 -19 5 -24 -21 -13 7 -62 35 -62 13 0 22 6 22
16 0 11 -6 14 -20 9 -15 -5 -20 -2 -20 13 0 11 6 23 13 25 10 4 10 6 0 6 -21
2 -14 17 7 17 16 0 22 -9 26 -36 5 -29 10 -36 27 -36 15 1 21 -4 19 -16 -1 -9
2 -19 8 -23 8 -5 7 -11 -1 -21 -9 -11 -8 -14 4 -14 8 0 18 11 21 25 7 26 21
35 91 54 66 18 87 41 93 100 3 34 1 51 -7 51 -7 0 -9 10 -6 28 3 15 -3 6 -12
-20 -26 -67 -32 -71 -84 -54 -24 8 -119 37 -210 65 -165 51 -167 51 -295 50
-71 -1 -158 -5 -194 -10z m-83 -65 c-3 -3 -12 -4 -19 -1 -8 3 -5 6 6 6 11 1
17 -2 13 -5z m-92 -14 c-4 -7 3 -8 22 -4 22 5 26 4 16 -6 -13 -14 -67 -5 -58
10 3 6 11 10 16 10 6 0 7 -5 4 -10z m-56 -81 c-8 -5 -17 -3 -21 4 -13 20 -9
30 7 17 13 -11 15 -8 16 16 l2 29 4 -29 c3 -17 -1 -32 -8 -37z m571 9 c0 -16
-3 -19 -11 -11 -6 6 -8 16 -5 22 11 17 16 13 16 -11z m257 16 c-3 -3 -12 -4
-19 -1 -8 3 -5 6 6 6 11 1 17 -2 13 -5z m184 -27 c-10 -9 -11 -8 -5 6 3 10 9
15 12 12 3 -3 0 -11 -7 -18z m-151 4 c0 -5 -9 -7 -20 -4 -11 3 -20 7 -20 9 0
2 9 4 20 4 11 0 20 -4 20 -9z m-36 -20 c3 -5 -1 -12 -10 -15 -20 -8 -29 -1
-19 13 8 13 22 14 29 2z"/>
<path d="M3527 1930 c-4 -15 -1 -27 6 -32 9 -6 9 -10 -2 -17 -10 -6 -10 -10
-1 -16 9 -6 9 -10 -1 -17 -10 -6 -7 -7 9 -3 22 6 23 5 26 -37 1 -7 9 -21 19
-30 9 -10 17 -28 18 -40 l0 -23 10 23 c9 25 3 68 -14 90 -5 6 -22 38 -36 69
-25 52 -28 55 -34 33z"/>
<path d="M2211 1894 c0 -11 3 -14 6 -6 3 7 2 16 -1 19 -3 4 -6 -2 -5 -13z"/>
<path d="M3395 1819 c-17 -91 -15 -134 4 -63 12 48 25 154 19 154 -3 0 -13
-41 -23 -91z"/>
<path d="M2105 1849 c-11 -17 1 -21 15 -4 8 9 8 15 2 15 -6 0 -14 -5 -17 -11z"/>
<path d="M2634 1817 c3 -10 6 -24 6 -30 0 -8 4 -7 12 1 10 10 8 16 -6 30 -18
16 -19 16 -12 -1z"/>
<path d="M2585 1800 c-4 -6 6 -10 22 -10 22 0 25 2 13 10 -19 12 -27 12 -35 0z"/>
<path d="M2800 1790 c0 -5 7 -10 16 -10 8 0 12 5 9 10 -3 6 -10 10 -16 10 -5
0 -9 -4 -9 -10z"/>
<path d="M2790 1760 c0 -5 7 -7 15 -4 8 4 15 8 15 10 0 2 -7 4 -15 4 -8 0 -15
-4 -15 -10z"/>
<path d="M2961 1740 c6 -16 15 -28 19 -25 9 6 -11 55 -22 55 -4 0 -2 -13 3
-30z"/>
<path d="M3020 1751 c0 -5 5 -13 10 -16 6 -3 10 -2 10 4 0 5 -4 13 -10 16 -5
3 -10 2 -10 -4z"/>
<path d="M2911 1734 c0 -11 3 -14 6 -6 3 7 2 16 -1 19 -3 4 -6 -2 -5 -13z"/>
<path d="M3000 1714 c0 -5 9 -17 20 -27 11 -9 20 -13 20 -8 0 4 -9 16 -20 26
-11 10 -20 14 -20 9z"/>
<path d="M3366 1695 c-3 -9 -6 -22 -5 -28 0 -7 5 -1 10 12 5 13 8 26 5 28 -2
2 -6 -3 -10 -12z"/>
<path d="M3128 1683 c7 -3 16 -2 19 1 4 3 -2 6 -13 5 -11 0 -14 -3 -6 -6z"/>
<path d="M3545 1623 c-33 -34 -62 -65 -65 -68 -7 -9 0 -79 10 -89 5 -5 3 -15
-6 -23 -9 -9 -12 -24 -8 -39 5 -18 0 -32 -17 -51 l-24 -25 25 7 c21 7 23 6 13
-7 -7 -8 -28 -23 -46 -33 -24 -12 -40 -33 -57 -71 -22 -53 -48 -76 -34 -32 6
21 5 21 -10 9 -10 -8 -15 -23 -13 -33 3 -10 2 -18 -1 -18 -12 -1 -55 -40 -50
-46 8 -7 88 27 88 38 0 5 4 6 10 3 24 -15 188 85 257 157 78 82 103 194 63
285 -12 28 -33 62 -48 75 l-27 24 -60 -63z m-164 -424 c-5 -13 -10 -19 -10
-12 -1 15 10 45 15 40 3 -2 0 -15 -5 -28z"/>
<path d="M2940 1672 c0 -5 7 -9 15 -9 8 0 12 4 9 9 -3 4 -9 8 -15 8 -5 0 -9
-4 -9 -8z"/>
<path d="M1748 1663 c7 -3 16 -2 19 1 4 3 -2 6 -13 5 -11 0 -14 -3 -6 -6z"/>
<path d="M2921 1642 c-1 -20 3 -31 9 -27 6 4 -1 -14 -15 -39 -16 -29 -20 -44
-12 -40 9 3 17 -3 20 -16 6 -22 29 -19 26 3 -3 28 2 47 12 47 6 0 9 -9 6 -20
-6 -22 5 -26 21 -7 6 7 7 28 2 52 -4 22 -8 35 -9 29 0 -7 -7 -14 -15 -17 -14
-6 -16 9 -4 29 4 6 1 11 -7 11 -8 0 -15 -5 -16 -11 -1 -6 -5 0 -9 14 -8 24 -8
23 -9 -8z m23 -80 c-6 -20 -24 -32 -24 -14 1 23 14 52 21 45 5 -5 6 -18 3 -31z"/>
<path d="M2981 1653 c0 -12 2 -14 6 -4 5 11 7 11 15 0 8 -12 9 -12 6 0 -6 22
-28 25 -27 4z"/>
<path d="M3333 1605 c-3 -9 -3 -18 -1 -21 3 -3 8 4 11 16 6 23 -1 27 -10 5z"/>
<path d="M1861 1488 c-1 -44 40 -136 82 -184 52 -59 172 -136 270 -174 213
-83 503 -117 734 -87 105 14 128 25 48 23 -30 0 -55 -4 -55 -8 0 -5 -4 -8 -10
-8 -6 0 -8 21 -6 49 4 47 2 52 -42 100 -39 42 -56 52 -101 62 -66 14 -133 6
-220 -27 -109 -42 -204 -25 -330 57 -27 18 -53 42 -56 53 -6 19 -8 19 -12 4
-5 -20 -44 -33 -68 -24 -8 3 -15 2 -15 -3 0 -17 -64 -20 -77 -3 -7 9 -13 12
-13 7 0 -4 -9 0 -20 10 -12 10 -19 24 -17 29 2 6 1 31 -3 56 -7 45 -12 42 -25
-14 -8 -39 -21 -24 -45 50 -13 41 -19 51 -19 32z m109 -174 c0 -8 -4 -12 -10
-9 -5 3 -10 13 -10 21 0 8 5 12 10 9 6 -3 10 -13 10 -21z m30 -34 c0 -5 -2
-10 -4 -10 -3 0 -8 5 -11 10 -3 6 -1 10 4 10 6 0 11 -4 11 -10z"/>
<path d="M2876 1458 c4 -18 2 -28 -5 -28 -6 0 -11 10 -12 23 -1 17 -3 15 -10
-10 -11 -37 -25 -43 -34 -14 -6 20 -6 20 -27 -1 -15 -15 -17 -22 -8 -28 9 -6
7 -10 -8 -14 -11 -4 -23 -13 -26 -21 -7 -19 66 -38 194 -50 19 -1 43 -6 53
-10 9 -4 24 -2 31 4 11 9 15 9 19 -1 4 -9 6 -8 6 3 1 9 -9 19 -21 23 -33 8
-46 6 -23 -5 18 -8 18 -8 -5 -6 -18 1 -26 9 -28 27 -2 14 -8 29 -13 35 -5 5
-9 16 -9 25 0 9 -12 23 -27 31 -16 8 -34 21 -41 29 -10 13 -11 11 -6 -12z
m-49 -68 c9 0 22 8 29 18 12 16 13 15 11 -5 -1 -19 -7 -23 -34 -23 -28 0 -33
3 -32 23 1 16 2 18 6 5 2 -10 12 -18 20 -18z m73 -26 c0 -2 -17 -4 -37 -3 -33
1 -35 2 -13 8 23 7 50 4 50 -5z m-100 -4 c0 -5 -4 -10 -10 -10 -5 0 -10 5 -10
10 0 6 5 10 10 10 6 0 10 -4 10 -10z m84 -18 c3 -5 -8 -6 -25 -4 -16 2 -29 6
-29 8 0 8 49 4 54 -4z m41 -2 c3 -5 1 -10 -4 -10 -6 0 -11 5 -11 10 0 6 2 10
4 10 3 0 8 -4 11 -10z"/>
<path d="M3446 1373 c-6 -14 -5 -15 5 -6 7 7 10 15 7 18 -3 3 -9 -2 -12 -12z"/>
<path d="M2661 1366 c2 -2 18 -6 34 -10 22 -5 26 -4 15 4 -14 9 -59 15 -49 6z"/>
<path d="M3076 1337 c-16 -12 -15 -14 11 -33 l29 -21 -4 33 c-5 37 -10 40 -36
21z"/>
<path d="M3120 1246 c0 -7 -7 -27 -15 -42 -20 -39 -19 -80 3 -89 13 -5 14 -4
5 6 -8 7 -9 18 -4 28 12 21 25 111 17 111 -3 0 -6 -6 -6 -14z"/>
<path d="M3301 1224 c0 -11 3 -14 6 -6 3 7 2 16 -1 19 -3 4 -6 -2 -5 -13z"/>
<path d="M3095 1078 c-16 -11 -22 -17 -12 -14 10 3 25 6 33 6 9 0 13 4 10 9
-4 5 0 12 6 14 7 3 9 5 3 5 -5 1 -23 -9 -40 -20z"/>
</g>
</svg>
